<svg version="1.1" class="iconic iconic-volume" xmlns="http://www.w3.org/2000/svg" xmlns:xlink="http://www.w3.org/1999/xlink" x="0px" y="0px"
	 width="9px" height="9px" viewBox="0 0 9 9" enable-background="new 0 0 9 9" xml:space="preserve">
<path class="iconic-volume-base iconic-elem-primary" d="M2.5,6.5c-1.105,0-2-0.896-2-2s0.895-2,2-2V6.5z"/>
<path class="iconic-volume-cone iconic-elem-primary" d="M3.5,2.75c0-0.138,0.101-0.3,0.224-0.362l1.553-0.776C5.399,1.55,5.5,1.612,5.5,1.75v5.5c0,0.138-0.101,0.2-0.224,0.138
	L3.724,6.612C3.601,6.55,3.5,6.388,3.5,6.25V2.75z"/>
<path class="iconic-volume-wave iconic-elem-secondary" fill="none" stroke="#000000" stroke-miterlimit="10" d="M6.5,3.002c0.129,0,0.251,0.016,0.369,0.045
	C7.52,3.212,7.999,3.8,7.999,4.5c0,0.701-0.479,1.289-1.13,1.454C6.751,5.982,6.629,5.998,6.5,5.998"/>
</svg>
